<svg xmlns="http://www.w3.org/2000/svg" xml:space="preserve" width="1600" height="1600"><g style="display:inline"><path d="m675.465 665.99 11.675 34.856 46.532-19.628-11.845-29.78zM623.012 680.71l.677 41.625 55.668-19.459-11.337-35.702zM621.919 668.58l.479-47.858 27.279-4.307 51.447-23.211 16.99 47.858z" style="display:inline;fill:#96c;fill-opacity:1" transform="translate(-1684.321 -1259.176) scale(3.19807)"/><path d="M829.78 616.751s13.586-3.081 20.474-4.06c10.313-1.467 20.74-1.996 31.133-2.708 9.015-.617 18.046-.957 27.073-1.354 10.432-.458 31.303-1.184 31.303-1.184l-.846 35.702-22.504.508s-21.555.576-32.318 1.184c-8.867.501-17.777.752-26.565 2.03-7.138 1.04-21.151 4.57-21.151 4.57zM729.96 649.198l11.605 29.313s23.1-8.015 34.817-11.486c9.015-2.67 18.153-4.912 27.279-7.178 8.506-2.113 25.604-5.983 25.604-5.983l-7.418-34.817-42.355 13.161s-22.622 6.801-34.218 11.008c-4.825 1.75-15.315 5.982-15.315 5.982zM823.52 585.787s13.706-3.123 20.642-4.23c3.168-.506 6.354-1.002 9.56-1.1 3.698-.113 7.39.37 11.083.592 16.872 1.015 50.593 3.384 50.593 3.384l-.17 12.521-54.822 3.215s-8.151.283-12.183.846c-7.022.981-20.812 4.4-20.812 4.4zM816.582 552.623s4.384-.734 6.6-.846c13.015-.662 26.165-.695 39.085 1.015 10.662 1.41 17.086 3.021 25.72 3.722 9.22.75 27.749.508 27.749.508l-.508 19.459s-46.87-4.061-49.577-3.892c-2.707.169-14.707.156-21.996 1.015-7.47.88-22.166 4.23-22.166 4.23zM707.107 591.29l17.468 47.619 94.999-32.065-10.29-52.884s-31.347 3.11-102.177 37.33z" style="display:inline;fill:#644483;fill-opacity:1" transform="translate(-1684.321 -1259.176) scale(3.19807)"/><path d="m688.663 707.953 11.168 35.025 48.562-24.196-12.522-30.457zM604.569 734.01s19.307-3.89 28.764-6.599c16.29-4.665 48.054-16.582 48.054-16.582l11.506 35.364s-19.982 6.643-30.118 9.475c-16.218 4.532-49.07 12.014-49.07 12.014z" style="fill:#7e55a7;fill-opacity:1" transform="translate(-1684.321 -1259.176) scale(3.19807)"/><path d="m704.116 754.247 48.097-23.57 13.161 33.86-50.73 21.656zM616.655 779.134s26.125-5.578 39.004-9.094c13.629-3.72 40.44-12.682 40.44-12.682l10.29 31.587-80.88 22.493z" style="display:inline;fill:#7e55a7;fill-opacity:1" transform="translate(-1684.321 -1259.176) scale(3.19807)"/><path d="m759.56 727.75 33.164-10.322 46.193-11.167 6.937 34.687-38.409 5.076-34.18 15.059zM838.478 659.607l6.58 33.98 41.637-6.82 52.525-2.273-.36-33.023s-52.332.746-78.367 3.111c-7.496.681-22.015 5.025-22.015 5.025zM744.5 686.294l11.338 30.288 31.472-9.983 21.658-5.584 27.919-6.599-6.43-32.656s-24.104 5.449-36.04 8.63c-11.02 2.935-21.995 6.073-32.826 9.644-5.762 1.9-17.09 6.26-17.09 6.26z" style="fill:#9c81b3;fill-opacity:1" transform="translate(-1684.321 -1259.176) scale(3.19807)"/><path d="m847.208 704.907 37.394-6.091 54.146-1.692-.508 35.025-46.023 3.046-38.24 4.06z" style="display:inline;fill:#9c81b3;fill-opacity:1" transform="translate(-1684.321 -1259.176) scale(3.19807)"/><g transform="translate(-1684.321 -1259.176) scale(3.19807)"><ellipse cx="693.875" cy="609.75" rx="7.625" ry="7.5" style="opacity:1;fill:none;stroke:#000;stroke-width:.5;stroke-dasharray:none;stroke-opacity:1"/><text xml:space="preserve" x="690.25" y="614" style="opacity:1;fill:#000;stroke:none;stroke-width:.3;stroke-dasharray:none;stroke-opacity:1"><tspan x="690.25" y="614">1</tspan></text><ellipse cx="905.014" cy="565.581" rx="7.625" ry="7.5" style="display:inline;fill:none;stroke:#000;stroke-width:.5;stroke-dasharray:none;stroke-opacity:1"/><text xml:space="preserve" x="901.389" y="569.831" style="display:inline;fill:#000;stroke:none;stroke-width:.5;stroke-dasharray:none;stroke-opacity:1"><tspan x="901.389" y="569.831">2</tspan></text><ellipse cx="926.775" cy="661.65" rx="7.625" ry="7.5" style="display:inline;fill:none;stroke:#000;stroke-width:.5;stroke-dasharray:none;stroke-opacity:1"/><text xml:space="preserve" x="923.15" y="665.9" style="display:inline;fill:#000;stroke:none;stroke-width:.3;stroke-dasharray:none;stroke-opacity:1"><tspan x="923.15" y="665.9">9</tspan></text><ellipse cx="730.775" cy="702.65" rx="7.625" ry="7.5" style="display:inline;fill:none;stroke:#000;stroke-width:.5;stroke-dasharray:none;stroke-opacity:1"/><text xml:space="preserve" x="717.751" y="712.117" style="font-size:10.92px;display:inline;fill:#000;stroke:none;stroke-width:.273;stroke-dasharray:none;stroke-opacity:1" transform="scale(1.00811 .99195)"><tspan x="717.751" y="712.117" style="stroke-width:.273">10</tspan></text></g><text xml:space="preserve" x="685.417" y="606.597" style="font-style:normal;font-variant:normal;font-weight:900;font-stretch:normal;font-size:8.37166px;font-family:Arial;-inkscape-font-specification:&quot;Arial Heavy&quot;;opacity:1;fill:#fff;stroke:none;stroke-width:.348818;stroke-dasharray:none;stroke-opacity:1" transform="matrix(3.0623 0 0 3.33985 -1684.321 -1259.176)"><tspan x="685.417" y="606.597" style="font-style:normal;font-variant:normal;font-weight:900;font-stretch:normal;font-family:Arial;-inkscape-font-specification:&quot;Arial Heavy&quot;;stroke-width:.348818">1A</tspan></text><text xml:space="preserve" x="662.757" y="675.127" style="font-style:normal;font-variant:normal;font-weight:900;font-stretch:normal;font-size:8.51283px;font-family:Arial;-inkscape-font-specification:&quot;Arial Heavy&quot;;display:inline;fill:#fff;stroke:none;stroke-width:.3547;stroke-dasharray:none;stroke-opacity:1" transform="matrix(3.11395 0 0 3.28447 -1684.321 -1259.176)"><tspan x="662.757" y="675.127" style="font-style:normal;font-variant:normal;font-weight:900;font-stretch:normal;font-family:Arial;-inkscape-font-specification:&quot;Arial Heavy&quot;;stroke-width:.3547">1B</tspan></text><text xml:space="preserve" x="715.904" y="662.644" style="font-style:normal;font-variant:normal;font-weight:900;font-stretch:normal;font-size:8.41275px;font-family:Arial;-inkscape-font-specification:&quot;Arial Heavy&quot;;display:inline;fill:#fff;stroke:none;stroke-width:.35053;stroke-dasharray:none;stroke-opacity:1" transform="matrix(3.13119 0 0 3.26638 -1684.321 -1259.176)"><tspan x="715.904" y="662.644" style="font-style:normal;font-variant:normal;font-weight:900;font-stretch:normal;font-family:Arial;-inkscape-font-specification:&quot;Arial Heavy&quot;;stroke-width:.35053">1C</tspan></text><text xml:space="preserve" x="806.641" y="561.729" style="font-style:normal;font-variant:normal;font-weight:900;font-stretch:normal;font-size:8.2075px;font-family:Arial;-inkscape-font-specification:&quot;Arial Heavy&quot;;display:inline;fill:#fff;stroke:none;stroke-width:.341978;stroke-dasharray:none;stroke-opacity:1" transform="matrix(3.00226 0 0 3.40665 -1684.321 -1259.176)"><tspan x="806.641" y="561.729" style="font-style:normal;font-variant:normal;font-weight:900;font-stretch:normal;font-family:Arial;-inkscape-font-specification:&quot;Arial Heavy&quot;;stroke-width:.341978">2A</tspan></text><text xml:space="preserve" x="893.934" y="541.252" style="font-style:normal;font-variant:normal;font-weight:900;font-stretch:normal;font-size:8.3404px;font-family:Arial;-inkscape-font-specification:&quot;Arial Heavy&quot;;display:inline;fill:#fff;stroke:none;stroke-width:.347515;stroke-dasharray:none;stroke-opacity:1" transform="matrix(3.05088 0 0 3.35237 -1684.321 -1259.176)"><tspan x="893.934" y="541.252" style="font-style:normal;font-variant:normal;font-weight:900;font-stretch:normal;font-family:Arial;-inkscape-font-specification:&quot;Arial Heavy&quot;;stroke-width:.347515">2B</tspan></text><text xml:space="preserve" x="889.954" y="569.15" style="font-style:normal;font-variant:normal;font-weight:900;font-stretch:normal;font-size:8.2438px;font-family:Arial;-inkscape-font-specification:&quot;Arial Heavy&quot;;display:inline;fill:#fff;stroke:none;stroke-width:.34349;stroke-dasharray:none;stroke-opacity:1" transform="matrix(3.06812 0 0 3.33353 -1684.321 -1259.176)"><tspan x="889.954" y="569.15" style="font-style:normal;font-variant:normal;font-weight:900;font-stretch:normal;font-family:Arial;-inkscape-font-specification:&quot;Arial Heavy&quot;;stroke-width:.34349">2C</tspan></text><text xml:space="preserve" x="809.931" y="623.404" style="font-style:normal;font-variant:normal;font-weight:900;font-stretch:normal;font-size:8.34188px;font-family:Arial;-inkscape-font-specification:&quot;Arial Heavy&quot;;display:inline;fill:#fff;stroke:none;stroke-width:.347577;stroke-dasharray:none;stroke-opacity:1" transform="matrix(3.05142 0 0 3.35177 -1684.321 -1259.176)"><tspan x="809.931" y="623.404" style="font-style:normal;font-variant:normal;font-weight:900;font-stretch:normal;font-family:Arial;-inkscape-font-specification:&quot;Arial Heavy&quot;;stroke-width:.347577">2D</tspan></text><text xml:space="preserve" x="820.411" y="659.661" style="font-style:normal;font-variant:normal;font-weight:900;font-stretch:normal;font-size:8.34188px;font-family:Arial;-inkscape-font-specification:&quot;Arial Heavy&quot;;display:inline;fill:#fff;stroke:none;stroke-width:.347577;stroke-dasharray:none;stroke-opacity:1" transform="matrix(3.05142 0 0 3.35177 -1684.321 -1259.176)"><tspan x="820.411" y="659.661" style="font-style:normal;font-variant:normal;font-weight:900;font-stretch:normal;font-family:Arial;-inkscape-font-specification:&quot;Arial Heavy&quot;;stroke-width:.347577">9A</tspan></text><text xml:space="preserve" x="897.083" y="619.569" style="font-style:normal;font-variant:normal;font-weight:900;font-stretch:normal;font-size:8.52545px;font-family:Arial;-inkscape-font-specification:&quot;Arial Heavy&quot;;display:inline;fill:#fff;stroke:none;stroke-width:.355225;stroke-dasharray:none;stroke-opacity:1" transform="matrix(3.11856 0 0 3.2796 -1684.321 -1259.176)"><tspan x="897.083" y="619.569" style="font-style:normal;font-variant:normal;font-weight:900;font-stretch:normal;font-family:Arial;-inkscape-font-specification:&quot;Arial Heavy&quot;;stroke-width:.355225">2E</tspan></text><text xml:space="preserve" x="651.487" y="729.973" style="font-style:normal;font-variant:normal;font-weight:900;font-stretch:normal;font-size:8.41166px;font-family:Arial;-inkscape-font-specification:&quot;Arial Heavy&quot;;display:inline;fill:#fff;stroke:none;stroke-width:.350484;stroke-dasharray:none;stroke-opacity:1" transform="matrix(3.13119 0 0 3.26638 -1684.321 -1259.176)"><tspan x="651.487" y="729.973" style="font-style:normal;font-variant:normal;font-weight:900;font-stretch:normal;font-family:Arial;-inkscape-font-specification:&quot;Arial Heavy&quot;;stroke-width:.350484">10A</tspan></text><text xml:space="preserve" x="732.393" y="711.99" style="font-style:normal;font-variant:normal;font-weight:900;font-stretch:normal;font-size:8.50646px;font-family:Arial;-inkscape-font-specification:&quot;Arial Heavy&quot;;display:inline;fill:#fff;stroke:none;stroke-width:.354434;stroke-dasharray:none;stroke-opacity:1" transform="matrix(3.16628 0 0 3.23018 -1684.321 -1259.176)"><tspan x="732.393" y="711.99" style="font-style:normal;font-variant:normal;font-weight:900;font-stretch:normal;font-family:Arial;-inkscape-font-specification:&quot;Arial Heavy&quot;;stroke-width:.354434">10B</tspan></text><text xml:space="preserve" x="663.322" y="777.05" style="font-style:normal;font-variant:normal;font-weight:900;font-stretch:normal;font-size:8.48596px;font-family:Arial;-inkscape-font-specification:&quot;Arial Heavy&quot;;display:inline;fill:#fff;stroke:none;stroke-width:.35358;stroke-dasharray:none;stroke-opacity:1" transform="matrix(3.16073 0 0 3.23585 -1684.321 -1259.176)"><tspan x="663.322" y="777.05" style="font-style:normal;font-variant:normal;font-weight:900;font-stretch:normal;font-family:Arial;-inkscape-font-specification:&quot;Arial Heavy&quot;;stroke-width:.35358">10C</tspan></text><text xml:space="preserve" x="726.803" y="758.091" style="font-style:normal;font-variant:normal;font-weight:900;font-stretch:normal;font-size:8.50751px;font-family:Arial;-inkscape-font-specification:&quot;Arial Heavy&quot;;display:inline;fill:#fff;stroke:none;stroke-width:.354478;stroke-dasharray:none;stroke-opacity:1" transform="matrix(3.16667 0 0 3.22978 -1684.321 -1259.176)"><tspan x="726.803" y="758.091" style="font-style:normal;font-variant:normal;font-weight:900;font-stretch:normal;font-family:Arial;-inkscape-font-specification:&quot;Arial Heavy&quot;;stroke-width:.354478">10D</tspan></text><text xml:space="preserve" x="926.323" y="640.352" style="font-style:normal;font-variant:normal;font-weight:900;font-stretch:normal;font-size:8.34188px;font-family:Arial;-inkscape-font-specification:&quot;Arial Heavy&quot;;display:inline;fill:#fff;stroke:none;stroke-width:.347577;stroke-dasharray:none;stroke-opacity:1" transform="matrix(3.05142 0 0 3.35177 -1684.321 -1259.176)"><tspan x="926.323" y="640.352" style="font-style:normal;font-variant:normal;font-weight:900;font-stretch:normal;font-family:Arial;-inkscape-font-specification:&quot;Arial Heavy&quot;;stroke-width:.347577">9B</tspan></text><text xml:space="preserve" x="835.015" y="701.644" style="font-style:normal;font-variant:normal;font-weight:900;font-stretch:normal;font-size:8.34188px;font-family:Arial;-inkscape-font-specification:&quot;Arial Heavy&quot;;display:inline;fill:#fff;stroke:none;stroke-width:.347577;stroke-dasharray:none;stroke-opacity:1" transform="matrix(3.05142 0 0 3.35177 -1684.321 -1259.176)"><tspan x="835.015" y="701.644" style="font-style:normal;font-variant:normal;font-weight:900;font-stretch:normal;font-family:Arial;-inkscape-font-specification:&quot;Arial Heavy&quot;;stroke-width:.347577">9C</tspan></text><text xml:space="preserve" x="931.437" y="689.018" style="font-style:normal;font-variant:normal;font-weight:900;font-stretch:normal;font-size:8.34188px;font-family:Arial;-inkscape-font-specification:&quot;Arial Heavy&quot;;display:inline;fill:#fff;stroke:none;stroke-width:.347577;stroke-dasharray:none;stroke-opacity:1" transform="matrix(3.05142 0 0 3.35177 -1684.321 -1259.176)"><tspan x="931.437" y="689.018" style="font-style:normal;font-variant:normal;font-weight:900;font-stretch:normal;font-family:Arial;-inkscape-font-specification:&quot;Arial Heavy&quot;;stroke-width:.347577">9D</tspan></text><circle cx="414.131" cy="833.28" r="6.582" style="display:inline;fill:#000;stroke-width:1.31636"/><circle cx="556.582" cy="849.282" r="6.582" style="display:inline;fill:#000;stroke-width:1.31636"/><circle cx="672.278" cy="824.456" r="6.582" style="display:inline;fill:#000;stroke-width:1.31636"/><circle cx="440.515" cy="891.051" r="6.582" style="display:inline;fill:#000;stroke-width:1.31636"/><circle cx="413.799" cy="1005.245" r="6.582" style="display:inline;fill:#000;stroke-width:1.31636"/><circle cx="356.234" cy="1072.404" r="6.582" style="display:inline;fill:#000;stroke-width:1.31636"/><circle cx="513.739" cy="1125.172" r="6.582" style="display:inline;fill:#000;stroke-width:1.31636"/><circle cx="626.071" cy="1070.006" r="6.582" style="display:inline;fill:#000;stroke-width:1.31636"/><circle cx="708.821" cy="1094.391" r="6.582" style="display:inline;fill:#000;stroke-width:1.31636"/><circle cx="789.573" cy="1005.245" r="6.582" style="display:inline;fill:#000;stroke-width:1.31636"/><circle cx="875.521" cy="1039.224" r="6.582" style="display:inline;fill:#000;stroke-width:1.31636"/><circle cx="305.465" cy="1242.302" r="6.582" style="display:inline;fill:#000;stroke-width:1.31636"/><circle cx="1304.062" cy="1069.606" r="6.582" style="display:inline;fill:#000;stroke-width:1.31636"/><circle cx="1296.867" cy="924.094" r="6.582" style="display:inline;fill:#000;stroke-width:1.31636"/><circle cx="1155.752" cy="925.293" r="6.582" style="display:inline;fill:#000;stroke-width:1.31636"/><circle cx="1158.95" cy="986.056" r="6.582" style="display:inline;fill:#000;stroke-width:1.31636"/><circle cx="1155.752" cy="701.428" r="6.582" style="display:inline;fill:#000;stroke-width:1.31636"/><circle cx="1171.742" cy="643.862" r="6.582" style="display:inline;fill:#000;stroke-width:1.31636"/><text xml:space="preserve" x="340.946" y="816.975" style="font-style:normal;font-variant:normal;font-weight:900;font-stretch:normal;font-size:15.102px;font-family:Arial;-inkscape-font-specification:&quot;Arial Heavy&quot;;display:inline;fill:#000;stroke-width:.629247"><tspan x="340.946" y="816.975" style="stroke-width:.629247">Bar Du Maranhão</tspan></text><text xml:space="preserve" x="453.353" y="861.496" style="font-style:normal;font-variant:normal;font-weight:900;font-stretch:normal;font-size:16.2145px;font-family:Arial;-inkscape-font-specification:&quot;Arial Heavy&quot;;display:inline;fill:#000;stroke-width:.675602" transform="scale(1.01683 .98345)"><tspan x="453.353" y="861.496" style="stroke-width:.675602">   Ponto</tspan><tspan x="453.353" y="881.764" style="stroke-width:.675602">Comercial</tspan></text><text xml:space="preserve" x="268.187" y="1094.813" style="font-style:normal;font-variant:normal;font-weight:900;font-stretch:normal;font-size:15.148px;font-family:Arial;-inkscape-font-specification:&quot;Arial Heavy&quot;;display:inline;fill:#000;stroke-width:.631168" transform="scale(1.01683 .98345)"><tspan x="268.187" y="1094.813" style="stroke-width:.631168">  Oficina </tspan><tspan x="268.187" y="1113.748" style="stroke-width:.631168">Mecânica</tspan></text><text xml:space="preserve" x="394.506" y="894.917" style="font-style:normal;font-variant:normal;font-weight:900;font-stretch:normal;font-size:14.4848px;font-family:Arial;-inkscape-font-specification:&quot;Arial Heavy&quot;;text-align:center;text-anchor:middle;display:inline;fill:#000;stroke-width:.603531"><tspan x="394.506" y="894.917" style="text-align:center;text-anchor:middle;stroke-width:.603531">  Padaria </tspan><tspan x="394.506" y="913.023" style="text-align:center;text-anchor:middle;stroke-width:.603531">  Carmem </tspan><tspan x="394.506" y="931.129" style="text-align:center;text-anchor:middle;stroke-width:.603531">Delicatessen</tspan></text><text xml:space="preserve" x="445.384" y="1113.035" style="font-style:normal;font-variant:normal;font-weight:900;font-stretch:normal;font-size:16.4823px;font-family:Arial;-inkscape-font-specification:&quot;Arial Heavy&quot;;text-align:center;text-anchor:middle;display:inline;fill:#000;stroke-width:.686764"><tspan x="445.384" y="1113.035" style="stroke-width:.686764">Supermercado</tspan><tspan x="445.384" y="1133.638" style="stroke-width:.686764">Trevo</tspan></text><text xml:space="preserve" x="583.887" y="1014.781" style="font-style:normal;font-variant:normal;font-weight:900;font-stretch:normal;font-size:16.0548px;font-family:Arial;-inkscape-font-specification:&quot;Arial Heavy&quot;;text-align:center;text-anchor:middle;display:inline;fill:#000;stroke-width:.668954"><tspan x="583.887" y="1014.781" style="stroke-width:.668954">Center</tspan><tspan x="583.887" y="1034.849" style="stroke-width:.668954">Presidente</tspan><tspan x="583.887" y="1054.918" style="stroke-width:.668954">Kennedy</tspan></text><text xml:space="preserve" x="722.61" y="826.368" style="font-style:normal;font-variant:normal;font-weight:900;font-stretch:normal;font-size:17.1564px;font-family:Arial;-inkscape-font-specification:&quot;Arial Heavy&quot;;text-align:center;text-anchor:middle;display:inline;fill:#000;stroke-width:.714847"><tspan x="722.61" y="826.368" style="stroke-width:.714847">Posto</tspan><tspan x="722.61" y="847.813" style="stroke-width:.714847">Shell</tspan></text><text xml:space="preserve" x="370.951" y="1249.392" style="font-style:normal;font-variant:normal;font-weight:900;font-stretch:normal;font-size:16.1503px;font-family:Arial;-inkscape-font-specification:&quot;Arial Heavy&quot;;text-align:center;text-anchor:middle;display:inline;fill:#000;stroke-width:.672932"><tspan x="370.951" y="1249.392" style="stroke-width:.672932">Friosul</tspan><tspan x="370.951" y="1269.58" style="stroke-width:.672932">Refrigeração</tspan></text><text xml:space="preserve" x="764.507" y="1014.754" style="font-style:normal;font-variant:normal;font-weight:900;font-stretch:normal;font-size:16.6765px;font-family:Arial;-inkscape-font-specification:&quot;Arial Heavy&quot;;text-align:center;text-anchor:middle;display:inline;fill:#000;stroke-width:.694857" transform="scale(.90399 1.10621)"><tspan x="764.507" y="1014.754" style="stroke-width:.694857">Arcomix</tspan><tspan x="764.507" y="1035.599" style="stroke-width:.694857">Supermercado</tspan></text><text xml:space="preserve" x="772.158" y="973.376" style="font-style:normal;font-variant:normal;font-weight:900;font-stretch:normal;font-size:15.3375px;font-family:Arial;-inkscape-font-specification:&quot;Arial Heavy&quot;;text-align:center;text-anchor:middle;display:inline;fill:#000;stroke-width:.639061"><tspan x="772.158" y="973.376" style="stroke-width:.639061">Yve Andrade</tspan><tspan x="772.158" y="992.548" style="stroke-width:.639061">Doceria</tspan></text><text xml:space="preserve" x="871.836" y="1065.275" style="font-style:normal;font-variant:normal;font-weight:900;font-stretch:normal;font-size:18.4921px;font-family:Arial;-inkscape-font-specification:&quot;Arial Heavy&quot;;text-align:center;text-anchor:middle;display:inline;fill:#000;stroke-width:.770502"><tspan x="871.836" y="1065.275" style="stroke-width:.770502">Correios</tspan></text><text xml:space="preserve" x="1117.16" y="1000.751" style="font-style:normal;font-variant:normal;font-weight:900;font-stretch:normal;font-size:17.0856px;font-family:Arial;-inkscape-font-specification:&quot;Arial Heavy&quot;;text-align:center;text-anchor:middle;display:inline;fill:#000;stroke-width:.711903"><tspan x="1117.16" y="1000.751" style="stroke-width:.711903">Cia do</tspan><tspan x="1117.16" y="1022.109" style="stroke-width:.711903">Estudante</tspan></text><text xml:space="preserve" x="1257.74" y="1036.33" style="font-style:normal;font-variant:normal;font-weight:900;font-stretch:normal;font-size:17.0857px;font-family:Arial;-inkscape-font-specification:&quot;Arial Heavy&quot;;text-align:center;text-anchor:middle;display:inline;fill:#000;stroke-width:.711898"><tspan x="1257.74" y="1036.33" style="stroke-width:.711898">Colégio</tspan><tspan x="1257.74" y="1057.687" style="stroke-width:.711898">Souza Leão</tspan></text><text xml:space="preserve" x="1110.699" y="903.256" style="font-style:normal;font-variant:normal;font-weight:900;font-stretch:normal;font-size:16.4658px;font-family:Arial;-inkscape-font-specification:&quot;Arial Heavy&quot;;text-align:center;text-anchor:middle;display:inline;fill:#000;stroke-width:.686077"><tspan x="1110.699" y="903.256" style="stroke-width:.686077">Colégio</tspan><tspan x="1110.699" y="923.838" style="stroke-width:.686077">Zuleide</tspan></text><text xml:space="preserve" x="1258.199" y="911.366" style="font-style:normal;font-variant:normal;font-weight:900;font-stretch:normal;font-size:15.0806px;font-family:Arial;-inkscape-font-specification:&quot;Arial Heavy&quot;;text-align:center;text-anchor:middle;display:inline;fill:#000;stroke-width:.628356"><tspan x="1258.199" y="911.366" style="stroke-width:.628356">Borracharia</tspan></text><text xml:space="preserve" x="1103.674" y="716.337" style="font-style:normal;font-variant:normal;font-weight:900;font-stretch:normal;font-size:21.4717px;font-family:Arial;-inkscape-font-specification:&quot;Arial Heavy&quot;;text-align:center;text-anchor:middle;display:inline;fill:#000;stroke-width:.894653"><tspan x="1103.674" y="716.337" style="stroke-width:.894653">Igreja</tspan><tspan x="1103.674" y="743.177" style="stroke-width:.894653">Evangélica</tspan></text><text xml:space="preserve" x="1127.238" y="637.706" style="font-style:normal;font-variant:normal;font-weight:900;font-stretch:normal;font-size:17.756px;font-family:Arial;-inkscape-font-specification:&quot;Arial Heavy&quot;;text-align:center;text-anchor:middle;display:inline;fill:#000;stroke-width:.739832"><tspan x="1127.238" y="637.706" style="stroke-width:.739832">Galeria</tspan></text><text xml:space="preserve" x="282.897" y="972.177" style="font-weight:900;font-size:22.9801px;font-family:Arial;-inkscape-font-specification:&quot;Arial Heavy&quot;;display:inline;fill:#000;stroke-width:.957503" transform="rotate(-18.454)"><tspan x="282.897" y="972.177" style="stroke-width:.957503">Av. Bernardo Vieira de Melo</tspan></text><text xml:space="preserve" x="805.267" y="1056.31" style="font-weight:900;font-size:24.6144px;font-family:Arial;-inkscape-font-specification:&quot;Arial Heavy&quot;;display:inline;fill:#000;stroke-width:1.0256" transform="matrix(.88659 -.17823 .14378 1.09902 0 0)"><tspan x="805.267" y="1056.31" rotate="0.5 0.5 0.5 0.5 0.5 0.5 0.5 0.5 0.5 0.5 0.5 0 0.5 0.5 0.5 0.5 0.5 0.5 0.5 0.5 0.5 0.5 0" style="stroke-width:1.0256">Av. Presidente Kennedy</tspan></text><text xml:space="preserve" x="759.414" y="-792.706" style="font-style:normal;font-variant:normal;font-weight:400;font-stretch:normal;font-size:22.0356px;font-family:Arial;-inkscape-font-specification:Arial;display:inline;fill:#000;stroke-width:.918147" transform="matrix(.20456 .9889 -.968 .20898 0 0)"><tspan x="759.414" y="-792.706" style="font-style:normal;font-variant:normal;font-weight:400;font-stretch:normal;font-family:Arial;-inkscape-font-specification:Arial;stroke-width:.918147">R. Manuel Menelau</tspan></text><g style="display:inline"><text xml:space="preserve" x="650.882" y="574.435" style="font-style:normal;font-variant:normal;font-weight:400;font-stretch:normal;font-size:6.23055px;font-family:Arial;-inkscape-font-specification:Arial;fill:#000;stroke-width:.259606" transform="rotate(-9.243 -6946.84657056 9272.830164) scale(3.45756)"><tspan x="650.882" y="574.435" style="font-style:normal;font-variant:normal;font-weight:400;font-stretch:normal;font-family:Arial;-inkscape-font-specification:Arial;stroke-width:.259606">R. Dona</tspan></text><text xml:space="preserve" x="780.936" y="420.811" style="font-style:normal;font-variant:normal;font-weight:400;font-stretch:normal;font-size:5.61563px;font-family:Arial;-inkscape-font-specification:Arial;fill:#000;stroke-width:.233984" transform="rotate(2.828 19372.4666508 -32492.71745016) scale(3.45756)"><tspan x="780.936" y="420.811" style="font-style:normal;font-variant:normal;font-weight:400;font-stretch:normal;font-family:Arial;-inkscape-font-specification:Arial;stroke-width:.233984">Balbina Menelau</tspan></text></g><text xml:space="preserve" x="562.336" y="1056.662" style="font-style:normal;font-variant:normal;font-weight:400;font-stretch:normal;font-size:23.2358px;font-family:Arial;-inkscape-font-specification:Arial;display:inline;fill:#000;stroke-width:.968159" transform="rotate(-13.565)"><tspan x="562.336" y="1056.662" style="font-style:normal;font-variant:normal;font-weight:400;font-stretch:normal;font-family:Arial;-inkscape-font-specification:Arial;stroke-width:.968159">R. José Nunes da Cunha</tspan></text><text xml:space="preserve" x="1024.161" y="-164.257" style="font-style:normal;font-variant:normal;font-weight:400;font-stretch:normal;font-size:23.251px;font-family:Arial;-inkscape-font-specification:Arial;display:inline;fill:#000;stroke-width:.968795" transform="rotate(72.059)"><tspan x="1024.161" y="-164.257" style="stroke-width:.968795">R. Santa Lúcia </tspan></text><text xml:space="preserve" x="1022.951" y="-271.457" style="font-style:normal;font-variant:normal;font-weight:400;font-stretch:normal;font-size:24.3284px;font-family:Arial;-inkscape-font-specification:Arial;display:inline;fill:#000;stroke-width:1.01368" transform="rotate(67.853)"><tspan x="1022.951" y="-271.457" style="stroke-width:1.01368">R. Prof. Eneida Rabelo</tspan></text><text xml:space="preserve" x="-1002.211" y="303.61" style="font-style:normal;font-variant:normal;font-weight:400;font-stretch:normal;font-size:26.6506px;font-family:Arial;-inkscape-font-specification:Arial;display:inline;fill:#000;stroke-width:1.11045" transform="rotate(-89.683)"><tspan x="-1002.211" y="303.61" style="stroke-width:1.11045">R. Oscar Ferreira</tspan></text><text xml:space="preserve" x="566.828" y="-1153.246" style="font-style:normal;font-variant:normal;font-weight:400;font-stretch:normal;font-size:23.3087px;font-family:Arial;-inkscape-font-specification:Arial;display:inline;fill:#000;stroke-width:.971196" transform="matrix(-.00786 .91791 -1.08937 -.00663 0 0)"><tspan x="566.828" y="-1153.246" style="font-style:normal;font-variant:normal;font-weight:400;font-stretch:normal;font-family:Arial;-inkscape-font-specification:Arial;stroke-width:.971196">R. Agrestina</tspan></text><text xml:space="preserve" x="69.692" y="1412.88" style="font-style:normal;font-variant:normal;font-weight:400;font-stretch:normal;font-size:25.9552px;font-family:Arial;-inkscape-font-specification:Arial;display:inline;fill:#000;stroke-width:1.08147" transform="rotate(-23.428)"><tspan x="69.692" y="1412.88" style="stroke-width:1.08147">R. Comendador Sá Barreto</tspan></text><text xml:space="preserve" x="1120.581" y="77.456" style="font-style:normal;font-variant:normal;font-weight:400;font-stretch:normal;font-size:27.3039px;font-family:Arial;-inkscape-font-specification:Arial;display:inline;fill:#000;stroke-width:1.13767" transform="rotate(74.537)"><tspan x="1120.581" y="77.456" style="stroke-width:1.13767">R. Prof. Silvio Rabelo</tspan></text></g><g style="display:inline"><text xml:space="preserve" x="816.789" y="237.805" style="font-style:normal;font-variant:normal;font-weight:900;font-stretch:normal;font-size:51.4936px;font-family:Arial;-inkscape-font-specification:&quot;Arial Heavy&quot;;text-align:center;text-anchor:middle;fill:#4d75a9;fill-opacity:1;stroke:none;stroke-width:4.29113;stroke-dasharray:none;stroke-opacity:1"><tspan x="816.789" y="237.805" style="font-style:normal;font-variant:normal;font-weight:900;font-stretch:normal;font-family:Arial;-inkscape-font-specification:&quot;Arial Heavy&quot;;fill:#4d75a9;fill-opacity:1;stroke-width:4.29113">TERRITÓRIO DO GRUPO</tspan><tspan x="816.789" y="302.172" style="font-style:normal;font-variant:normal;font-weight:900;font-stretch:normal;font-family:Arial;-inkscape-font-specification:&quot;Arial Heavy&quot;;fill:#4d75a9;fill-opacity:1;stroke-width:4.29113">AMETISTA</tspan></text><text xml:space="preserve" x="787.608" y="480.289" style="font-style:normal;font-variant:normal;font-weight:700;font-stretch:normal;font-size:38.377px;font-family:Arial;-inkscape-font-specification:&quot;Arial Bold&quot;;text-align:center;text-anchor:middle;fill:#000;fill-opacity:1;stroke-width:3.19808"><tspan x="787.608" y="480.289" style="stroke-width:3.19808">Beira-Mar</tspan></text></g></svg>